<?xml version="1.0" standalone="no"?>
<!DOCTYPE svg PUBLIC "-//W3C//DTD SVG 20010904//EN"
 "http://www.w3.org/TR/2001/REC-SVG-20010904/DTD/svg10.dtd">
<svg version="1.0" xmlns="http://www.w3.org/2000/svg"
 width="16.000000pt" height="16.000000pt" viewBox="0 0 16.000000 16.000000"
 preserveAspectRatio="xMidYMid meet">
<metadata>
Created by potrace 1.11, written by Peter Selinger 2001-2013
</metadata>
<g transform="translate(0.000000,16.000000) scale(0.006154,-0.006154)"
fill="#000000" stroke="none">
<path d="M905 2529 c-36 -11 -212 -48 -258 -54 -47 -6 -166 -17 -212 -20 -22
-2 -42 -3 -45 -4 -4 -1 -5 -2309 -1 -2333 2 -11 170 0 276 17 125 21 140 24
223 45 l73 18 77 -39 c42 -21 119 -49 171 -63 129 -33 337 -32 451 3 160 49
264 112 380 231 211 215 298 531 235 854 -29 148 -133 334 -251 450 -85 84
-234 173 -339 203 -105 31 -278 43 -385 29 -68 -10 -174 -42 -249 -77 -46 -21
-84 -39 -85 -39 -1 0 -1 178 -1 395 0 434 5 404 -60 384z m517 -1144 c112 -29
201 -100 252 -201 114 -224 34 -495 -176 -597 -156 -76 -368 -43 -491 76 l-43
42 1 269 0 269 50 44 c113 99 264 136 407 98z"/>
</g>
</svg>
